<?xml version="1.0" encoding="UTF-8" standalone="no"?>
<!-- Uploaded to: SVG Repo, www.svgrepo.com, Generator: SVG Repo Mixer Tools -->

<svg
   width="800"
   height="800"
   viewBox="0 0 48.000001 48.000001"
   id="b"
   version="1.1"
   sodipodi:docname="icon.svg"
   xml:space="preserve"
   inkscape:version="1.4.2 (ebf0e940d0, 2025-05-08)"
   xmlns:inkscape="http://www.inkscape.org/namespaces/inkscape"
   xmlns:sodipodi="http://sodipodi.sourceforge.net/DTD/sodipodi-0.dtd"
   xmlns="http://www.w3.org/2000/svg"
   xmlns:svg="http://www.w3.org/2000/svg"><sodipodi:namedview
     id="namedview1"
     pagecolor="#ffffff"
     bordercolor="#000000"
     borderopacity="0.25"
     inkscape:showpageshadow="2"
     inkscape:pageopacity="0.0"
     inkscape:pagecheckerboard="0"
     inkscape:deskcolor="#d1d1d1"
     inkscape:zoom="1.0253048"
     inkscape:cx="405.24535"
     inkscape:cy="411.09727"
     inkscape:window-width="1656"
     inkscape:window-height="1086"
     inkscape:window-x="0"
     inkscape:window-y="0"
     inkscape:window-maximized="0"
     inkscape:current-layer="g1" /><defs
     id="defs1"><style
       id="style1">.c{fill:none;stroke:#000000;stroke-linecap:round;stroke-linejoin:round;}</style></defs><g
     id="g1"
     transform="matrix(1.1997023,0,0,1.2027178,-4.7928549,-4.8163392)"><path
       style="display:inline;fill:#ffffff;fill-opacity:1;stroke:#ffffff;stroke-width:8.3249454;stroke-miterlimit:0;stroke-dasharray:none;stroke-opacity:1"
       d="M 381.18291,618.8209 C 309.30904,611.83666 247.51089,572.81871 211.04812,511.40164 195.39904,485.0427 185.98303,457.22798 181.87996,425.2394 c -1.53824,-11.99246 -1.25544,-39.829 0.5477,-53.91116 9.11121,-71.15668 54.08728,-134.37419 118.94614,-167.1884 31.70982,-16.04303 62.98025,-23.37738 99.3528,-23.30279 21.27738,0.0436 33.88693,1.57335 53.42377,6.48106 77.58164,19.48873 139.60187,81.87161 158.7844,159.71287 4.74956,19.27337 6.27546,32.13285 6.27117,52.85011 -0.004,21.27392 -1.67458,34.79297 -6.7785,54.86848 -21.68418,85.29138 -94.49686,150.40507 -181.80626,162.58263 -13.84142,1.93054 -37.54576,2.64434 -49.43827,1.4887 z"
       id="path35"
       transform="scale(0.06)" /><path
       style="display:inline;fill:#137d00;fill-opacity:1;stroke:#137d00;stroke-width:8.3249454;stroke-miterlimit:0;stroke-dasharray:none;stroke-opacity:1"
       d="M 376.47342,715.35185 C 317.41962,710.44223 263.82091,690.83842 215.96535,656.64579 189.63826,637.83517 162.13865,610.3595 143.27489,584.01862 111.5031,539.65326 92.139625,489.45113 85.794044,434.9926 83.909988,418.82341 83.645618,385.35489 85.277868,369.64618 91.601374,308.789 113.62833,253.91114 151.24144,205.3048 c 11.15365,-14.41353 39.64983,-42.90971 54.06336,-54.06336 47.52876,-36.77925 96.69916,-56.964499 159.95244,-65.663073 9.7794,-1.344862 32.99098,-1.589977 181.20164,-1.913497 l 169.98546,-0.37105 -0.34554,170.97279 c -0.3807,188.37893 -0.0481,177.76044 -6.56238,209.49792 -27.20232,132.52926 -138.05243,234.26174 -272.59318,250.17188 -15.87357,1.87714 -46.339,2.59026 -60.46982,1.41544 z m 55.59322,-80.3627 c 83.37033,-12.00369 152.97339,-64.88194 185.65287,-141.04265 13.29167,-30.97671 19.10626,-59.80156 19.07339,-94.55307 -0.0262,-27.63442 -3.57983,-49.86084 -11.99158,-75.00103 -28.99065,-86.64421 -106.60563,-149.37128 -198.09894,-160.10009 -13.59774,-1.59451 -43.26328,-1.32315 -57.0562,0.52193 -79.48909,10.63322 -147.27955,59.19793 -182.39021,130.66332 -16.44107,33.46467 -24.02522,66.39663 -24.04391,104.40353 -0.0139,28.32833 3.18444,48.31845 12.06504,75.40786 22.50281,68.64252 77.90036,124.79372 146.76851,148.76515 17.13547,5.96447 39.04574,10.64306 57.82007,12.34657 12.19285,1.10633 39.92094,0.35657 52.20096,-1.41152 z"
       id="path34"
       transform="scale(0.06)" /><path
       fill="#231f20"
       d="m 23.986674,9.8293786 c -7.825352,0 -14.1691426,6.3306904 -14.1691426,14.1398804 0,7.809192 6.3437906,14.139883 14.1691426,14.139883 7.825351,0 14.16914,-6.330691 14.16914,-14.139883 0,-7.80919 -6.343789,-14.1398804 -14.16914,-14.1398804 z m 7.957744,13.6980084 c -0.0611,-2.466525 -0.6261,-4.806675 -1.599786,-6.922796 1.174266,-0.451592 2.288761,-1.023816 3.327535,-1.702973 2.135997,2.271218 3.47764,5.291853 3.587448,8.625769 z m -7.367512,13.682989 c -0.0487,0.0022 -0.09829,0.0022 -0.147449,0.004 v -5.27596 c 1.471822,0.03844 2.898919,0.256728 4.252959,0.649551 -1.071984,1.783392 -2.468975,3.348942 -4.10551,4.622416 z m 4.966285,-4.341385 c 1.01088,0.353937 1.975707,0.802879 2.888291,1.333567 -1.767158,1.453757 -3.91821,2.45813 -6.277816,2.844768 1.331901,-1.208961 2.475173,-2.618089 3.389525,-4.178335 z M 19.290488,32.587959 c 1.354481,-0.393266 2.781581,-0.611108 4.2534,-0.64955 v 5.275501 c -0.04915,-0.0018 -0.09874,-0.0018 -0.147448,-0.004 -1.636979,-1.273063 -3.033525,-2.838612 -4.105952,-4.622005 z m 2.528749,4.458925 c -2.359604,-0.386196 -4.510657,-1.390569 -6.277816,-2.844769 0.913026,-0.530245 1.877412,-0.979627 2.888292,-1.333124 0.914352,1.560246 2.058067,2.969374 3.389524,4.177893 z M 10.714174,23.527387 c 0.109806,-3.333916 1.451007,-6.354551 3.587447,-8.625769 1.038777,0.678716 2.152826,1.250939 3.327536,1.702973 -0.974131,2.116121 -1.539122,4.456271 -1.60023,6.922796 z m 18.39553,-7.425203 c -1.481119,0.47236 -3.052565,0.737925 -4.680247,0.780343 v -6.15836 c 0.04915,0.0018 0.09874,0.0018 0.147449,0.004 1.863242,1.449339 3.41565,3.278244 4.532798,5.37404 z m -2.955596,-5.210549 c 2.631918,0.431268 5.002594,1.633158 6.872477,3.367944 -0.963502,0.614645 -1.990765,1.135611 -3.074704,1.546108 -0.971473,-1.855416 -2.259534,-3.518622 -3.797773,-4.914052 z m -2.61022,-0.167468 v 6.15836 c -1.628123,-0.04242 -3.19957,-0.307541 -4.680245,-0.780343 1.117147,-2.095797 2.669556,-3.924701 4.532797,-5.374041 0.0487,-0.0022 0.09828,-0.0022 0.147448,-0.004 z m -5.52198,5.08152 c -1.08394,-0.410497 -2.111647,-0.931463 -3.074703,-1.546108 1.869881,-1.734786 4.240113,-2.936676 6.872475,-3.367944 -1.53868,1.39543 -2.826743,3.058636 -3.797772,4.914052 z m 0.444113,1.097607 c 1.60377,0.525387 3.308495,0.827627 5.077867,0.871372 v 5.752721 h -6.62806 c 0.06154,-2.362242 0.607503,-4.602529 1.550193,-6.624093 z m 5.077867,7.507837 v 6.643978 c -1.631223,0.04065 -3.207983,0.293843 -4.700171,0.746321 -1.174709,-2.215102 -1.85837,-4.726257 -1.927889,-7.390299 z m 0.885569,6.643978 v -6.643978 h 6.62806 c -0.06906,2.664042 -0.753179,5.175197 -1.927889,7.39074 -1.492188,-0.452919 -3.068947,-0.706112 -4.700171,-0.746762 z m 0,-7.527722 v -5.753162 c 1.769373,-0.04374 3.474097,-0.345544 5.077869,-0.871373 0.942689,2.021565 1.488642,4.262293 1.550191,6.624095 h -6.62806 z m -13.715283,0.883744 h 5.314753 c 0.06819,2.763023 0.770449,5.366968 1.96907,7.674864 -1.105194,0.397241 -2.15681,0.903182 -3.147762,1.500593 -2.452591,-2.320706 -4.016953,-5.564484 -4.136061,-9.175457 z m 22.408938,9.175899 c -0.990955,-0.597853 -2.04257,-1.103353 -3.147763,-1.500595 1.198622,-2.308336 1.900879,-4.91184 1.969069,-7.674861 h 5.314754 c -0.119106,3.61053 -1.683471,6.854308 -4.13606,9.175456 z"
       id="path1-7"
       style="display:inline;fill:#000000;fill-opacity:1;stroke:none;stroke-width:0.83251119;stroke-dasharray:none;stroke-opacity:1" /><circle
       class="c"
       cx="24"
       cy="24"
       id="circle1"
       style="display:inline;fill:none;fill-opacity:1;stroke:#000000;stroke-width:0.83251119;stroke-dasharray:none;stroke-opacity:1"
       r="13.7027" /><path
       class="c"
       d="M 24,4.5 C 13.2486,4.5 4.5,13.2486 4.5,24 4.5,34.7514 13.2486,43.5 24,43.5 34.7514,43.5 43.5,34.7514 43.5,24 V 4.5 Z"
       id="path1"
       style="fill:none;fill-opacity:1;stroke:#000000;stroke-width:0.83251119;stroke-dasharray:none;stroke-opacity:1" /></g></svg>
